<svg xmlns="http://www.w3.org/2000/svg" xmlns:xlink="http://www.w3.org/1999/xlink">
  <defs>
    <symbol id="circle" viewBox="0 0 129 129">
      <circle cx="50%" cy="50%" r="48%"/>
    </symbol>
    <symbol id="arrow_down" viewBox="0 0 530 300">
      <path  d="M12.08 70.78c-16.17-16.24-16.09-42.54.15-58.7 16.25-16.17 42.54-16.09 58.71.15L256 197.76 441.06 12.23c16.17-16.24 42.46-16.32 58.71-.15 16.24 16.16 16.32 42.46.15 58.7L285.27 285.96c-16.24 16.17-42.54 16.09-58.7-.15L12.08 70.78z"/>
    </symbol>
    <symbol id="ro_flag" height="100%" width="100%" viewBox="0 0 60 40">
		<path d="M17.75,0v38.4H3.03C1.37,38.4,0,37.04,0,35.37V3.03C0,1.36,1.37,0,3.03,0H17.75L17.75,0z" fill="#002B7F"/>
		<polygon points="37.45,0 37.45,38.4 17.75,38.4 17.75,0 37.45,0" fill="#FCD116"/>
		<path d="M37.45,38.4V0h14.72c1.67,0,3.03,1.36,3.03,3.03v32.33c0,1.67-1.37,3.03-3.03,3.03H37.45L37.45,38.4z" fill="#CE1126"/>
    </symbol>
    <symbol id="en_flag" height="100%" width="100%"  viewBox="0 0 60 40">
	<path d="M2.87,38.4h49.46c1.59-0.09,2.87-1.42,2.87-3.03V3.03c0-1.66-1.35-3.02-3.01-3.03H3.01 C1.35,0.01,0,1.37,0,3.03v32.33C0,36.98,1.28,38.31,2.87,38.4L2.87,38.4z" fill="#FEFEFE"/>
	<path d="M33.98,12.43V0h18.23c1.26,0.02,2.34,0.81,2.78,1.92L33.98,12.43L33.98,12.43z" fill="#012169"/>
	<path d="M33.98,25.97V38.4h18.35c1.21-0.07,2.23-0.85,2.66-1.92L33.98,25.97L33.98,25.97z" fill="#012169"/>
	<path d="M21.18,25.97V38.4H2.87c-1.21-0.07-2.24-0.85-2.66-1.94L21.18,25.97L21.18,25.97z" fill="#012169"/>
	<path d="M21.18,12.43V0H2.99C1.73,0.02,0.64,0.82,0.21,1.94L21.18,12.43L21.18,12.43z" fill="#012169"/>
	<polygon points="23.74,23.03 23.74,38.4 31.42,38.4 31.42,23.03 55.2,23.03 55.2,15.35 31.42,15.35 31.42,0 23.74,0 23.74,15.35 0,15.35 0,23.03 23.74,23.03" fill="#012169"/>
	<polygon points="0,12.8 7.65,12.8 0,8.97 0,12.8" fill="#012169"/>
	<polygon points="55.2,12.8 47.51,12.8 55.2,8.95 55.2,12.8" fill="#012169"/>
	<polygon points="55.2,25.6 47.51,25.6 55.2,29.45 55.2,25.6" fill="#012169"/>
	<polygon points="0,25.6 7.65,25.6 0,29.43 0,25.6" fill="#012169"/>
	<polygon points="55.2,3.25 36.15,12.8 40.41,12.8 55.2,5.4 55.2,3.25" fill="#C8102E"/>
	<polygon points="19.01,25.6 14.75,25.6 0,32.98 0,35.13 19.05,25.6 19.01,25.6" fill="#C8102E"/>
	<polygon points="10.52,12.81 14.78,12.81 0,5.41 0,7.55 10.52,12.81" fill="#C8102E"/>
	<polygon points="44.63,25.59 40.37,25.59 55.2,33.02 55.2,30.88 44.63,25.59" fill="#C8102E"/>
    </symbol>
  </defs>
</svg>
